<?xml version="1.0" encoding="utf-8"?>
<!-- Generator: Adobe Illustrator 18.0.0, SVG Export Plug-In . SVG Version: 6.00 Build 0)  -->
<!DOCTYPE svg PUBLIC "-//W3C//DTD SVG 1.1//EN" "http://www.w3.org/Graphics/SVG/1.1/DTD/svg11.dtd">
<svg version="1.1" id="Layer_1" xmlns="http://www.w3.org/2000/svg" xmlns:xlink="http://www.w3.org/1999/xlink" x="0px" y="0px"
	 viewBox="0 0 400 300" enable-background="new 0 0 400 300" xml:space="preserve">
<g>
	<circle fill="#808285" cx="129.7" cy="178.5" r="10.9"/>
	<circle fill="#808285" cx="135.9" cy="175.4" r="1.6"/>
	<path fill="#808285" d="M129.7,208.5c-8,0-15.5-3.1-21.2-8.8c-11.7-11.7-11.7-30.7,0-42.4l0.7,0.7c-11.3,11.3-11.3,29.7,0,40.9
		c5.5,5.5,12.7,8.5,20.5,8.5c7.7,0,15-3,20.5-8.5l0.7,0.7C145.3,205.4,137.8,208.5,129.7,208.5L129.7,208.5z"/>
	<circle fill="#808285" cx="339.1" cy="178.5" r="10.9"/>
	<path fill="#808285" d="M350,97.9c0-6-4.9-10.9-10.9-10.9s-10.9,4.9-10.9,10.9c0,6,10.9,63.6,10.9,63.6S350,103.9,350,97.9z"/>
	<path fill="#808285" d="M49.5,189.6l-0.9-0.6c0.1-0.1,7.2-10.9,20.7-21.3c12.5-9.6,33.1-20.7,60.4-19.3
		c16.2,0.8,28.1,8.8,35.2,15.5c6.9,6.4,10.8,12.7,11.6,14h94.3v1H176l-0.1-0.3c-0.2-0.3-15.7-27.7-46.1-29.2
		c-27-1.4-47.4,9.6-59.7,19C56.6,178.8,49.6,189.5,49.5,189.6L49.5,189.6z"/>
	<path fill="#808285" stroke="#000000" stroke-width="2" d="M277.1,144.4"/>
	<polygon fill="#808285" points="277.5,213 276.7,212.3 310.5,178.5 276.7,144.8 277.5,144 312,178.5 277.5,213 	"/>
	<path fill="#808285" stroke="#000000" stroke-width="2" d="M280.2,147.5"/>
</g>
</svg>
